<?xml version="1.0" encoding="utf-8"?>
<!-- Generator: Adobe Illustrator 22.0.1, SVG Export Plug-In . SVG Version: 6.00 Build 0)  -->
<svg version="1.1" id="Layer_1" xmlns="http://www.w3.org/2000/svg" xmlns:xlink="http://www.w3.org/1999/xlink" x="0px" y="0px"
	 viewBox="0 0 48.9 50" style="enable-background:new 0 0 48.9 50;" xml:space="preserve">
<style type="text/css">
	.st0{fill:#666666;}
	.st1{fill:#FFFFFF;}
	.st2{fill:#FFDD12;}
	.st3{fill:#333333;}
	.st4{fill:#79CDCD;}
	.st5{fill:#98E0DE;}
</style>
<g>
	<circle class="st0" cx="10.2" cy="33" r="4.5"/>
	<circle class="st1" cx="10.2" cy="33" r="1.9"/>
	<circle class="st0" cx="37.9" cy="33" r="4.5"/>
	<circle class="st1" cx="37.9" cy="33" r="1.9"/>
	<path class="st2" d="M42.5,21.8l-6.3-0.6c-0.2,0-0.4-0.1-0.6-0.3c-1.6-2.5-2.7-5.5-4.9-7.5c-0.4-0.4-0.8-0.6-1.2-0.8
		c-0.8-0.4-1.7-0.5-2.7-0.5h-9.2h-3.7c-2.9,0-5.4,1.8-6.4,4.4c0,0-0.1,0.3-0.1,0.4c0,0-1,3.6-3.4,4.6c-0.3,0.1-0.6,0.3-0.9,0.3
		C1.8,22.1,1,23.2,1,24.5v6c0,1.5,1.2,2.7,2.7,2.7h0.9c0-0.1,0-0.2,0-0.3c0-3.1,2.5-5.7,5.7-5.7s5.7,2.5,5.7,5.7c0,0.1,0,0.2,0,0.3
		c5.3,0,11.5,0,11.5,0l4.8,0c0-0.1,0-0.2,0-0.3c0-3.1,2.5-5.7,5.7-5.7s5.7,2.5,5.7,5.7c0,0.1,0,0.2,0,0.3l2.3,0c1.1,0,2-0.9,2-2
		l0.1-4.2C47.8,24.2,46,22.2,42.5,21.8z"/>
	<path class="st3" d="M4.5,33c0-0.8,0.2-1.5,0.4-2.2H1.2C0.6,30.8,0,31.4,0,32s0.6,1.2,1.2,1.2h3.3C4.5,33.2,4.5,33.1,4.5,33z"/>
	<g>
		<path class="st3" d="M47.8,30.8h-4.7c0.3,0.7,0.4,1.4,0.4,2.2c0,0.1,0,0.2,0,0.3h4.3c0.7,0,1.2-0.6,1.2-1.2S48.4,30.8,47.8,30.8z"
			/>
		<path class="st3" d="M32.2,33.3c0-0.1,0-0.2,0-0.3c0-0.8,0.2-1.5,0.4-2.2H15.4c0.3,0.7,0.4,1.4,0.4,2.2c0,0.1,0,0.2,0,0.3H32.2z"
			/>
	</g>
	<path class="st4" d="M28,14.9c-0.7-0.3-1.5-0.4-2.3-0.4h-3v6.7h10.2c-1.2-1.9-2.1-4-3.8-5.6C28.8,15.3,28.4,15,28,14.9z"/>
	<path class="st4" d="M13.8,21.1h7.5v-6.7h-3.3h-3.1c-0.4,0-0.7,0-1.1,0.1V21.1z"/>
	<path class="st4" d="M12.5,14.9c-1.4,0.6-2.5,1.7-3.1,3.1c0,0-0.1,0.2-0.1,0.3c0,0-0.4,1.5-1.4,2.7h4.6V14.9z"/>
	<path class="st5" d="M9.8,17.4l2.7,2.8v-5.3C11.3,15.4,10.4,16.3,9.8,17.4z"/>
	<path class="st5" d="M14.8,14.4c-0.4,0-0.7,0-1.1,0.1v0l6.7,6.6h0.8v-6.7h-3.3H14.8z"/>
	<path class="st5" d="M29.1,15.6c-0.3-0.3-0.7-0.5-1-0.7c-0.7-0.3-1.5-0.4-2.3-0.4h-3l6.7,6.7h3.4C31.7,19.2,30.8,17.1,29.1,15.6z"
		/>
	<path class="st3" d="M15.7,24.6H14c-0.3,0-0.6-0.3-0.6-0.6l0,0c0-0.3,0.3-0.6,0.6-0.6h1.8c0.3,0,0.6,0.3,0.6,0.6l0,0
		C16.3,24.3,16.1,24.6,15.7,24.6z"/>
	<path class="st3" d="M27.2,24.6h-1.8c-0.3,0-0.6-0.3-0.6-0.6l0,0c0-0.3,0.3-0.6,0.6-0.6h1.8c0.3,0,0.6,0.3,0.6,0.6l0,0
		C27.8,24.3,27.5,24.6,27.2,24.6z"/>
	<path class="st1" d="M44.4,25.3c0,1.2,1,2.2,2.2,2.2h1.2l0-0.4c0-0.7-0.1-1.4-0.3-2h-3.1V25.3z"/>
</g>
</svg>
